<svg xmlns="http://www.w3.org/2000/svg" width="28.926" height="28.926" viewBox="0 0 28.926 28.926">
  <g id="light" transform="translate(-5.074 -1.074)">
    <path id="Path_638379" data-name="Path 638379" d="M17.537,9.037a8.5,8.5,0,1,0,8.5,8.5A8.5,8.5,0,0,0,17.537,9.037Zm.5,1.016a7.5,7.5,0,0,1,0,14.967Zm-1.92-5.6v2.3a1.42,1.42,0,0,0,2.839,0v-2.3a1.42,1.42,0,0,0-2.839,0Zm9.665,2.827L24.157,8.91a1.42,1.42,0,0,0,2.007,2.007L27.79,9.292a1.42,1.42,0,0,0-2.007-2.007Zm4.835,8.833h-2.3a1.42,1.42,0,0,0,0,2.839h2.3a1.42,1.42,0,0,0,0-2.839ZM27.79,25.783l-1.625-1.625a1.42,1.42,0,0,0-2.007,2.007l1.625,1.625a1.42,1.42,0,0,0,2.007-2.007Zm-8.833,4.835v-2.3a1.42,1.42,0,0,0-2.839,0v2.3a1.42,1.42,0,0,0,2.839,0ZM9.292,27.79l1.625-1.625A1.42,1.42,0,0,0,8.91,24.157L7.284,25.783A1.42,1.42,0,0,0,9.292,27.79ZM4.457,18.957h2.3a1.42,1.42,0,0,0,0-2.839h-2.3a1.42,1.42,0,0,0,0,2.839ZM7.284,9.292,8.91,10.917A1.42,1.42,0,1,0,10.917,8.91L9.292,7.284A1.42,1.42,0,0,0,7.284,9.292Z" transform="translate(2 -2)" fill="#fff"/>
  </g>
</svg>
